<?xml version="1.0" encoding="UTF-8"?>
<svg id="Layer_1" data-name="Layer 1" xmlns="http://www.w3.org/2000/svg" viewBox="0 0 428.28 148.42">
  <path d="M142.63,19.53s-.11-.21-.3-.37c-1.61-1.4-15.64,2.98-15.64,2.98-4.49,1.4-9.04,2.44-18.15,4.51-.94.21-2.21.52-3.94.86-2.33.46-4.67.88-6.99,1.35-1.82.37-3.64.75-5.45,1.19-2.25.55-4.49,1.14-6.73,1.75-1.27.35-2.52.75-3.77,1.16-1.66.55-3.31,1.1-4.95,1.7-1.37.5-2.72,1.06-4.06,1.63-1.34.57-2.67,1.19-3.99,1.81-2.59,1.23-5.11,2.59-7.57,4.05-3.87,2.3-7.56,4.86-11.13,7.6-2.32,1.78-4.6,3.6-6.79,5.54-3.55,3.14-6.75,6.61-9.42,10.53-2.63,3.86-4.61,8.04-5.94,12.52-.72,2.45-1.24,4.94-1.5,7.48-.31,3.05-.33,6.12-.03,9.18.03.31.12.61.2.97.21-.09.38-.13.51-.22,1.94-1.27,3.87-2.55,5.82-3.82,1.99-1.29,3.99-2.57,5.99-3.86,1.35-.87,2.69-1.74,4.05-2.6,1.23-.78,2.48-1.54,3.72-2.31,1.41-.88,2.81-1.77,4.22-2.65.85-.53,1.71-1.05,2.56-1.57,1.44-.88,2.88-1.76,4.32-2.64,1.68-1.03,3.36-2.07,5.04-3.12,2.14-1.33,4.28-2.66,6.41-4.01,2.03-1.28,4.06-2.57,6.08-3.88,2.4-1.56,4.8-3.13,7.18-4.71,1.91-1.27,3.81-2.55,5.69-3.85,1.95-1.35,3.89-2.73,5.81-4.13,1.69-1.23,3.37-2.47,5.04-3.73,2.58-1.95,5.08-4.01,7.53-6.12,1.17-1.01,2.38-1.97,3.72-2.75.29-.17.56-.28.88-.28.23,0,.46,0,.69-.02.45-.02.84.13,1.21.38.98.66,1.32,1.6.86,2.68-.17.41-.49.77-.78,1.11-.72.81-1.52,1.55-2.37,2.23-.96.76-1.96,1.48-2.96,2.19-1.7,1.2-3.39,2.43-5.09,3.64-1.63,1.16-3.26,2.32-4.9,3.48-1.82,1.29-3.65,2.58-5.47,3.86-1.27.89-2.54,1.77-3.81,2.65-1.46,1.01-2.91,2.03-4.36,3.05-1.95,1.36-3.9,2.71-5.85,4.07-1.55,1.08-3.08,2.18-4.63,3.26-2.51,1.75-5.04,3.49-7.54,5.24-2.25,1.57-4.49,3.17-6.74,4.75-2.48,1.75-4.97,3.49-7.44,5.25-1.86,1.33-3.72,2.68-5.57,4.03-1.69,1.23-3.37,2.47-5.05,3.72-2.71,2.02-5.39,4.07-7.97,6.26-1.92,1.63-3.8,3.32-5.54,5.14-2.09,2.17-4.02,4.47-5.84,6.86-1.37,1.8-2.69,3.64-3.91,5.54-.62.96-1.22,1.94-1.83,2.91-.26.41-.55.79-.95,1.12-.02-.01-.04-.03-.06-.04,3.51,4.17,5.26,6.25,5.27,6.25,0,0-1.73-2.07-5.21-6.21,2.71,4.1,5.16,6.46,6.85,7.83,1.81,1.47,2.84,1.87,2.99,1.7.11-.12-.27-.51-.13-1.1.02-.09.06-.19.42-.78.23-.37.34-.56.49-.77,1.12-1.64,2.14-2.9,2.14-2.9,1.08-1.4,2.17-2.81,3.29-4.18.89-1.08,1.82-2.13,2.75-3.17.6-.68,1.35-1.17,2.21-1.43.85-.26,1.73-.33,2.63-.27,1.31.09,2.5.58,3.71,1.03,1.26.47,2.55.86,3.85,1.19,1.58.4,3.17.74,4.78,1.01,1.33.22,2.66.4,4,.52,1.63.14,3.26.17,4.89.12,2.07-.07,4.11-.31,6.13-.73,3.04-.64,5.96-1.61,8.8-2.86,2.02-.89,3.99-1.89,5.85-3.07,1.11-.7,2.17-1.5,3.19-2.33,2.27-1.85,4.39-3.85,6.42-5.96,2.35-2.44,4.41-5.11,6.25-7.96,2.33-3.61,4.48-7.33,6.48-11.12,1.35-2.56,2.68-5.12,3.98-7.71.89-1.76,1.71-3.56,2.56-5.34.57-1.19,1.15-2.36,1.72-3.55.6-1.27,1.19-2.54,1.77-3.81.59-1.27,1.17-2.55,1.75-3.82.65-1.43,1.28-2.88,1.92-4.31.58-1.31,1.16-2.61,1.75-3.92.28-.63.57-1.25.86-1.87.55-1.22,1.09-2.46,1.67-3.67.23-.49.53-.95.82-1.41.11-.18.27-.29.58-.25.17.23.38.5.56.79,1.05,1.77,2.09,3.55,3.15,5.32.68,1.13,1.39,2.24,2.09,3.35.17.26.34.53.72.64.33-.44.66-.9.98-1.35,5.77-8.17,11.34-20.12,12.62-37.43Z" fill="#7ac15b" stroke-width="0"/>
  <path d="M87.16,14.63c.61.32,1.26.53,1.91.72.38.11.76.25,1.14.38.35.12.7.24,1.05.36.19.06.39.11.57.19,1.12.44,2.24.87,3.34,1.33.76.32,1.51.69,2.26,1.04.54.26,1.07.55,1.62.79,1.13.49,2.18,1.14,3.26,1.72,1,.54,1.97,1.16,2.93,1.77.87.55,1.73,1.11,2.57,1.71.34.24.81.63,1.34,1.18.22.22.39.42.51.56-.16.04-.33.07-.49.11-.21.05-.42.1-.63.14,0,0-2.01.48-3.94.86-2.33.46-4.67.88-6.99,1.35-1.82.37-3.64.75-5.45,1.19-2.25.55-4.49,1.14-6.73,1.75-1.27.35-2.52.75-3.77,1.16-1.66.55-3.31,1.1-4.95,1.7-1.37.5-2.72,1.06-4.06,1.63-1.34.57-2.67,1.19-3.99,1.81-2.59,1.23-5.11,2.59-7.57,4.05-3.87,2.3-7.56,4.86-11.13,7.6-2.32,1.78-4.6,3.6-6.79,5.54-3.55,3.14-6.75,6.61-9.42,10.53-2.63,3.86-4.61,8.04-5.94,12.52-.72,2.45-1.24,4.94-1.5,7.48-.31,3.05-.33,6.12-.03,9.18.03.31.12.61.2.97.21-.09.38-.13.51-.22,1.94-1.27,3.87-2.55,5.82-3.82,1.99-1.29,3.99-2.57,5.99-3.86,1.35-.87,2.69-1.74,4.05-2.6,1.23-.78,2.48-1.54,3.72-2.31,1.41-.88,2.81-1.77,4.22-2.65.85-.53,1.71-1.05,2.56-1.57,1.44-.88,2.88-1.76,4.32-2.64,1.68-1.03,3.36-2.07,5.04-3.12,2.14-1.33,4.28-2.66,6.41-4.01,2.03-1.28,4.06-2.57,6.08-3.88,2.4-1.56,4.8-3.13,7.18-4.71,1.91-1.27,3.81-2.55,5.69-3.85,1.95-1.35,3.89-2.73,5.81-4.13,1.69-1.23,3.37-2.47,5.04-3.73,2.58-1.95,5.08-4.01,7.53-6.12,1.17-1.01,2.38-1.97,3.72-2.75.29-.17.56-.28.88-.28.23,0,.46,0,.69-.02.45-.02.84.13,1.21.38.98.66,1.32,1.6.86,2.68-.17.41-.49.77-.78,1.11-.72.81-1.52,1.55-2.37,2.23-.96.76-1.96,1.48-2.96,2.19-1.7,1.2-3.39,2.43-5.09,3.64-1.63,1.16-3.26,2.32-4.9,3.48-1.82,1.29-3.65,2.58-5.47,3.86-1.27.89-2.54,1.77-3.81,2.65-1.46,1.01-2.91,2.03-4.36,3.05-1.95,1.36-3.9,2.71-5.85,4.07-1.55,1.08-3.08,2.18-4.63,3.26-2.51,1.75-5.04,3.49-7.54,5.24-2.25,1.57-4.49,3.17-6.74,4.75-2.48,1.75-4.97,3.49-7.44,5.25-1.86,1.33-3.72,2.68-5.57,4.03-1.69,1.23-3.37,2.47-5.05,3.72-2.71,2.02-5.39,4.07-7.97,6.26-1.92,1.63-3.8,3.32-5.54,5.14-2.09,2.17-4.02,4.47-5.84,6.86-1.37,1.8-2.69,3.64-3.91,5.54-.62.96-1.22,1.94-1.83,2.91-.26.41-.55.79-.95,1.12-.46-.28-.78-.68-1.1-1.07-.65-.8-1.29-1.61-1.9-2.43-.59-.8-1.15-1.63-1.71-2.47-.41-.62-.82-1.24-1.19-1.89-.58-1.02-1.15-2.04-1.7-3.08-.36-.68-.71-1.37-1.03-2.07-.39-.83-.75-1.67-1.11-2.51-.28-.66-.55-1.32-.81-1.98-.34-.88-.7-1.75-1-2.64-.38-1.14-.72-2.29-1.08-3.44-.46-1.45-.77-2.93-1.09-4.42-.14-.67-.25-1.35-.37-2.03-.65-3.65-.86-7.33-1.02-11.02-.09-2.15-.04-4.3.07-6.44.1-2,.24-4.01.51-5.99.24-1.81.53-3.62.97-5.4.32-1.31.69-2.6,1.05-3.89.28-1.02.67-2.01,1.03-3,.34-.94.7-1.88,1.08-2.8.3-.74.63-1.47.96-2.2.39-.86.79-1.71,1.21-2.55.29-.59.61-1.16.94-1.73.89-1.53,1.76-3.07,2.7-4.58.74-1.19,1.56-2.33,2.36-3.47.8-1.14,1.67-2.24,2.54-3.33.96-1.2,1.97-2.37,3.02-3.49,1.06-1.12,2.15-2.22,3.27-3.29.91-.87,1.86-1.69,2.82-2.5,1.07-.9,2.15-1.8,3.28-2.62,1.18-.85,2.42-1.63,3.66-2.39,1.05-.64,2.12-1.23,3.2-1.82.68-.37,1.38-.69,2.07-1.03.77-.37,1.54-.75,2.32-1.1.84-.37,1.69-.7,2.54-1.03.58-.23,1.17-.46,1.76-.67,1.16-.41,2.32-.81,3.48-1.21.22-.07.44-.13.66-.19.25-.06.51-.09.75-.18.75-.28,1.53-.47,2.31-.65,1.56-.36,3.11-.78,4.68-1.12,3.2-.7,6.43-1.09,9.71-1.15,3.87-.07,7.74.12,11.6.32,1.46.08,2.9.34,4.34.6.62.11,1.23.25,1.85.4,1.25.3,2.52.55,3.74.97.08.03.17.01.25.02.12.01.24.03.36.04Z" fill="#010101" stroke-width="0"/>
  <path d="M278.7,35.63c.19-.02.38-.04.58-.05,7.91-.09,20.77-.04,21.6.09,0,.27.02.55.02.83,0,2.61,0,5.21,0,7.82,0,14.95,0,29.9,0,44.85,0,1.86-.01,3.72-.18,5.58-.51,5.54-1.88,10.81-4.74,15.64-4.01,6.77-9.72,11.56-17.02,14.46-3.21,1.27-6.52,2.13-9.93,2.61-2.96.42-5.93.56-8.92.45-5.19-.2-10.23-1.13-15.05-3.13-9.26-3.85-15.35-10.64-18.63-20.04-.89-2.55-1.42-5.18-1.76-7.86-.29-2.28-.42-4.56-.42-6.85,0-17.84,0-35.69,0-53.53,0-.28-.07-.57.08-.84.64-.1,20.64-.13,22.14-.04.03.15.07.3.08.46.01.23,0,.46,0,.69,0,17.56,0,35.11,0,52.67,0,1.35.01,2.69.17,4.03.23,1.94.64,3.84,1.43,5.64,1.79,4.08,4.88,6.63,9.2,7.68,2.59.63,5.21.68,7.86.41,1.46-.15,2.88-.46,4.25-.98,3.84-1.46,6.43-4.18,7.89-7.99.7-1.83,1.07-3.74,1.19-5.69.07-1.06.08-2.12.08-3.18,0-17.56,0-35.11,0-52.67,0-.34-.06-.69.08-1.05Z" fill="#010101" stroke-width="0"/>
  <path d="M394.54,53.49c-.03.13-.07.24-.07.35,0,5.98,0,11.97,0,17.99.2.04.36.08.52.09.26.01.52,0,.77,0,9.14,0,18.29,0,27.43,0h.97c.25.28.17.55.18.79,0,2.12,0,4.24,0,6.36v9.92c-.19.04-.35.09-.51.1-.26.02-.52,0-.77,0-9.14,0-18.29,0-27.43,0-.34,0-.68,0-1.06,0-.04.2-.09.36-.1.52-.02.2,0,.4,0,.6,0,5.96,0,11.92,0,17.87,0,.31,0,.63,0,.98.19.04.35.1.51.11.26.02.52,0,.77,0,10.46,0,20.92,0,31.38,0,.34,0,.68,0,1.06.01.03.24.08.44.08.63,0,5.47,0,10.94,0,16.41,0,.22-.04.45-.06.72-.2.03-.36.06-.52.07-.23.01-.46,0-.69,0-17.86,0-35.71,0-53.57,0-.37,0-.74.05-1.13-.07-.02-.16-.06-.29-.07-.43-.11-2.84-.04-90.06.08-90.87.15-.02.31-.06.47-.07.2-.01.4,0,.6,0,17.91,0,35.83,0,53.74,0,.34,0,.68,0,.99.01.24.34.15.67.15.97,0,4.67,0,9.34,0,14.01,0,.69,0,1.37,0,2.06,0,.2-.02.39-.03.64-.19.03-.35.08-.51.08-.26.01-.52,0-.77,0-10.43,0-20.87,0-31.3,0-.36,0-.74-.06-1.11.1Z" fill="#7ac15b" stroke-width="0"/>
  <path d="M217.18,126.97c-.81.1-50.63.09-51.34,0-.02-.02-.05-.03-.06-.06-.01-.02-.02-.06-.02-.08,0-30.1-.01-60.21-.02-90.31,0-.26.01-.51.02-.77,0-.02.03-.05.08-.12.09-.01.23-.04.36-.04,3.54-.1,20.96-.04,21.78.07.02.15.05.32.05.48,0,.29,0,.57,0,.86,0,23.92,0,47.83,0,71.75,0,.34-.05.68.07,1.05.98.08,1.95.03,2.92.04.97,0,1.95,0,2.92,0h17.37c.97,0,1.95,0,2.92,0,.97,0,1.94,0,2.89,0,.14.84.2,12.3.09,16.64,0,.17-.04.33-.06.48Z" fill="#010101" stroke-width="0"/>
  <path d="M313.36,35.62c.15-.01.32-.04.48-.04,5.58-.1,20.83-.05,21.65.07.02.02.03.05.05.07.01.02.03.05.04.08,0,.03,0,.06,0,.09,0,.03,0,.06,0,.09,0,.03,0,.06,0,.09,0,.03,0,.06,0,.09,0,.03,0,.06,0,.09,0,.03,0,.06,0,.09,0,.03,0,.06,0,.09,0,.03,0,.06,0,.09v72.61s0,.06,0,.09c0,.03,0,.06,0,.09s0,.06,0,.09,0,.06,0,.09c0,.03,0,.06,0,.09,0,.03,0,.06.01.08,0,.03.02.06.03.08.01.02.03.05.09.13.55.04,1.15.01,1.74.02.6,0,1.2,0,1.81,0h21.84c.6,0,1.2,0,1.81,0,.6.01,1.2-.06,1.78.05.11.74.16,13.98.07,16.68,0,.14-.04.27-.07.46h-51.36c-.02-.21-.04-.34-.05-.48-.12-5.06-.05-89.98.08-90.94Z" fill="#010101" stroke-width="0"/>
  <path d="M383.47,30.2v-15.22c10.39-5.01,20.78-10,31.14-14.98.27.18.18.4.18.58,0,2.09,0,4.18,0,6.27,0,3.12,0,6.24,0,9.36v.85c-.08.11-.09.13-.11.15-.02.02-.04.04-.07.05-10.24,4.3-20.48,8.59-30.71,12.89-.08.03-.16.06-.24.08-.02,0-.06,0-.08,0-.03,0-.05-.01-.11-.03Z" fill="#7ac15b" stroke-width="0"/>
  <path d="M259.67,146.01c.82-.27,1.59-.26,2.41-.14.12.71.12,1.4,0,2.14-.29.02-.56.04-.83.04-1.41,0-2.81,0-4.22,0-.36,0-.73.04-1.09.1-3.85.63-6.64-1.73-7.59-4.38-.86-2.4-.38-4.57,1.23-6.5,1.14-1.37,2.63-2.16,4.4-2.39,1.09-.14,2.14.05,3.13.48,2.06.89,3.44,2.41,4.02,4.58.47,1.79.22,3.51-.8,5.09-.21.33-.45.65-.67.97ZM258.44,141.54c.08-2.12-2.04-3.85-3.8-3.81-2.02.05-3.79,1.82-3.81,3.83-.02,1.65,1.51,3.83,3.83,3.82,2.36-.01,3.88-2.19,3.78-3.84Z" fill="#7ac15b" stroke-width="0"/>
  <path d="M401.52,146.07c.83-.33,1.6-.32,2.43-.2.13.71.08,1.39.04,2.13-.33.02-.59.05-.86.06-1.35,0-2.69,0-4.04,0-.43,0-.85.05-1.28.1-1.79.24-3.48,0-4.98-1.07-1.15-.82-2.04-1.85-2.54-3.18-1.05-2.75-.18-5.72,2.14-7.58,1.08-.87,2.32-1.37,3.69-1.47,1.52-.11,2.91.3,4.15,1.18,1.94,1.39,3,3.27,2.99,5.68,0,1.29-.43,2.46-1.16,3.52-.19.27-.39.55-.58.82ZM400.36,141.58c.09-1.96-1.85-3.84-3.77-3.86-1.75-.02-3.83,1.68-3.85,3.8-.01,1.75,1.53,3.82,3.78,3.86,2.31.04,3.9-2.19,3.84-3.8Z" fill="#7ac15b" stroke-width="0"/>
  <path d="M205.7,139.4h-3.08s-.07-.12-.13-.19c-1.46-2.07-4.12-2.22-5.81-.34-1.9,2.12-1.07,5.86,1.9,6.66,1.12.3,2.19.1,3.16-.53.57-.38.97-.9,1.16-1.65-1.07-.19-2.11.03-3.15-.14-.14-.67-.12-1.33-.03-1.93.07-.08.09-.11.11-.12.02-.02.06-.03.09-.03,1.87-.01,3.73-.03,5.6-.03.15,0,.3.02.49.04.04.15.13.29.12.43-.08,3.68-2.64,5.93-4.99,6.49-4.06.95-7.53-1.54-8.26-5.07-.95-4.58,2.53-7.58,5.51-8.06,2.57-.41,6.04.98,7.25,4.11.03.08.03.18.06.36Z" fill="#7ac15b" stroke-width="0"/>
  <path d="M377.02,143.27h-3.03c-.2-.71-.06-1.37-.1-2.04.17-.05.28-.11.39-.12,1.87,0,3.73,0,5.6,0,.12,0,.23.05.33.07.43,2.65-1.61,6.34-5.34,6.98-4.2.72-7.21-2.04-7.84-5.24-.77-3.89,1.76-7.11,5.07-7.87,3.33-.77,6.98,1.27,7.75,4.33-.51.13-1.02.05-1.52.06-.49.01-.98,0-1.5,0-.06-.08-.12-.15-.17-.23-.77-1.27-1.97-1.72-3.37-1.61-1.42.11-2.43.94-3.06,2.2-.84,1.72-.39,3.75,1.05,5,1.68,1.45,4.27.88,5.23-.35.24-.31.51-.6.5-1.18Z" fill="#7ac15b" stroke-width="0"/>
  <path d="M329.84,148.24c-3.47.13-6.73-3.2-6.68-6.76.04-2.95,2.56-6.61,6.75-6.62,3.64,0,6.67,3.16,6.68,6.7,0,3.89-3.5,6.86-6.75,6.68ZM329.88,137.74c-1.71-.07-3.82,1.66-3.81,3.82,0,1.72,1.54,3.82,3.81,3.83,2.38,0,3.82-2.26,3.82-3.83,0-1.93-1.88-3.87-3.82-3.81Z" fill="#7ac15b" stroke-width="0"/>
  <path d="M357.06,148.24c-3.52.14-6.75-3.21-6.72-6.72.03-2.97,2.54-6.62,6.71-6.66,3.67-.03,6.74,3.18,6.71,6.75-.03,3.89-3.54,6.79-6.71,6.63ZM353.27,141.57c-.1,1.7,1.53,3.82,3.81,3.8,2.39-.01,3.81-2.29,3.8-3.85-.01-1.91-1.88-3.81-3.85-3.8-1.7,0-3.87,1.67-3.77,3.85Z" fill="#7ac15b" stroke-width="0"/>
  <path d="M182.87,148.24c-3.4.14-6.75-2.89-6.75-6.68,0-3.55,3.04-6.7,6.67-6.7,4.16,0,6.72,3.67,6.75,6.62.05,3.55-3.19,6.89-6.67,6.76ZM186.62,141.55c.09-2.12-2.04-3.86-3.79-3.82-2.02.04-3.79,1.81-3.81,3.83-.02,1.64,1.5,3.83,3.82,3.82,2.36,0,3.89-2.19,3.78-3.83Z" fill="#7ac15b" stroke-width="0"/>
  <path d="M225.95,138.99c-.85.06-1.69.04-2.58,0-.09-.23-.18-.45-.27-.67-.15-.39-.42-.67-.81-.84-.83-.35-1.66-.37-2.5-.03-.17.07-.33.17-.46.3-.45.41-.45,1.17.03,1.53.29.21.63.38.98.48.7.21,1.42.36,2.13.54.77.19,1.54.41,2.24.8,1.15.64,1.9,1.67,1.77,3.44-.12,1.57-.95,2.62-2.35,3.22-1.95.83-3.94.84-5.89.04-1.35-.55-2.26-1.55-2.56-3.02-.04-.18-.06-.36-.07-.54,0-.12.02-.24.04-.38.46-.16.92-.07,1.37-.09.46-.02.91,0,1.4,0,.05.15.11.25.13.36.21,1.03.92,1.55,1.88,1.78.73.18,1.46.11,2.16-.19.22-.1.43-.24.6-.41.47-.46.46-1.2-.04-1.62-.25-.21-.56-.38-.87-.49-.64-.21-1.29-.37-1.94-.55-.8-.22-1.58-.44-2.34-.79-2.74-1.24-2.47-4.82-.34-6.14,1.2-.73,2.49-1,3.86-.88.57.05,1.16.17,1.7.35,1.39.46,2.4,1.33,2.75,2.82.07.29.13.59,0,.95Z" fill="#7ac15b" stroke-width="0"/>
  <path d="M406.48,135.09c.92-.11,1.8-.03,2.62-.05.29.23.22.49.22.72,0,2.08,0,4.16,0,6.24,0,.37-.03.74.03,1.1.06.42.18.84.32,1.23.17.45.54.75.99.89.78.24,1.57.25,2.35-.02.56-.19.91-.61,1.08-1.17.16-.5.23-1.01.23-1.54,0-2.14,0-4.28,0-6.42,0-.3,0-.6,0-.91.49-.22.96-.12,1.4-.13.45,0,.91-.05,1.42.06.03.18.07.35.07.52,0,2.51.01,5.02,0,7.52,0,.55-.08,1.1-.21,1.63-.45,1.81-1.63,2.9-3.43,3.31-1.12.25-2.26.27-3.37.03-2.4-.51-3.52-2.07-3.75-4.37-.02-.18-.02-.37-.02-.55,0-2.48,0-4.95,0-7.43,0-.21.03-.41.05-.67Z" fill="#7ac15b" stroke-width="0"/>
  <path d="M272.56,135.06h2.62c.04.19.1.35.1.52,0,2.6.01,5.19,0,7.79,0,.48-.08.97-.19,1.45-.38,1.59-1.39,2.64-2.93,3.12-1.4.44-2.84.45-4.25.06-1.94-.54-3.03-1.86-3.28-3.86-.07-.6-.11-1.22-.11-1.83-.01-2.11,0-4.22,0-6.33,0-.3-.06-.61.12-.87.78-.12,1.89-.12,2.71.01.02.25.05.51.05.78,0,2.08,0,4.16,0,6.23,0,.43.04.85.11,1.27.27,1.79,1.26,1.91,2.49,1.97.18,0,.36-.05.54-.07,1.05-.16,1.52-.56,1.74-1.59.1-.44.1-.91.11-1.37.01-2.11,0-4.22,0-6.33,0-.3-.07-.61.16-.98Z" fill="#7ac15b" stroke-width="0"/>
  <path d="M317.35,143.66h3.02c-.16,1.82-2.89,4.67-6.31,4.61-3.36-.06-6.36-2.7-6.62-6.14-.28-3.58,2.22-6.82,6.04-7.25,1.61-.18,3.1.22,4.43,1.15,1.18.82,2.07,1.87,2.51,3.29-.14.04-.22.09-.31.09-.92,0-1.83,0-2.78,0-.11-.15-.22-.29-.33-.44-1.34-1.83-4.43-2.08-5.99.34-1.36,2.12-.44,4.55,1.01,5.57,1.73,1.21,3.95.67,4.99-.77.11-.15.22-.29.34-.46Z" fill="#7ac15b" stroke-width="0"/>
  <path d="M278.85,135.13c.75-.13,6.4-.15,7.41-.04.27.37.14.81.15,1.23,0,.42.08.85-.09,1.29-.49.14-.97.06-1.45.08-.52.01-1.04,0-1.56,0-.49,0-.97,0-1.44,0-.25.43-.14.83-.15,1.22,0,.39-.06.79.08,1.22.22.03.42.07.63.08.95,0,1.9,0,2.84,0,.27,0,.54.02.82.03.26.43.13.87.14,1.28,0,.42.1.85-.11,1.3-1.43.11-2.86-.03-4.32.08-.16.82-.04,1.61-.08,2.43.2.05.37.12.54.12,1.04.01,2.08,0,3.12,0,.3,0,.61,0,.9,0,.26.45.13.88.15,1.3.01.39.05.79-.07,1.21-.83.17-1.65.06-2.46.08-.82.02-1.65,0-2.48,0-.82,0-1.64,0-2.5-.01-.04-.23-.09-.4-.09-.58,0-3.97,0-7.94,0-11.92,0-.12.02-.24.04-.41Z" fill="#7ac15b" stroke-width="0"/>
  <path d="M303.85,140.32c.11.83.07,1.62.03,2.45-.19.04-.36.09-.53.1-.95,0-1.9,0-2.85,0-.3,0-.6.02-.95.03-.16.84-.1,1.65-.04,2.49.51.14,1,.06,1.48.08.52.01,1.04,0,1.56,0,.48,0,.97-.04,1.48.05.03.16.07.27.07.38,0,.67,0,1.34,0,2.05-.19.04-.33.1-.47.1-2.2,0-4.41,0-6.61,0-.12,0-.23-.04-.31-.05-.06-.06-.08-.08-.1-.11-.01-.03-.02-.06-.03-.09-.01-.24-.03-.49-.03-.73,0-3.91,0-7.83.01-11.74,0-.06.04-.11.08-.23.79-.15,1.61-.05,2.42-.06.8-.02,1.59,0,2.39,0s1.65,0,2.47,0c.28.43.14.87.15,1.28.01.42.07.85-.07,1.3-.48.14-.97.06-1.45.07-.52.01-1.04,0-1.56,0-.48,0-.97-.05-1.43.05-.16.75-.17,1.6-.03,2.43.71.18,1.44.06,2.17.09.7.03,1.4-.04,2.13.05Z" fill="#7ac15b" stroke-width="0"/>
  <path d="M428.23,135.03c.05.94.09,1.75-.03,2.61-1.5.13-2.96-.02-4.43.09-.26.41-.13.84-.14,1.26-.01.39-.08.79.09,1.2.69.15,1.39.06,2.09.07.7.02,1.4,0,2.08,0,.22.6.24,1.43.09,2.52-.16.02-.33.07-.5.07-.98,0-1.96,0-2.94,0-.27,0-.54.03-.84.04-.15.42-.08.82-.09,1.21,0,.4,0,.79,0,1.23.21.05.38.11.55.12,1.01.01,2.02,0,3.03,0,.3,0,.61,0,.89,0,.21.6.24,1.43.09,2.46-.02.02-.04.05-.06.07-.02.02-.06.03-.08.03-.3.01-.61.03-.91.03-2.08,0-4.16,0-6.2,0-.29-.3-.19-.62-.19-.92,0-2.78,0-5.57,0-8.35,0-.98,0-1.96,0-2.94,0-.24.03-.48.05-.74.15-.03.27-.08.38-.08,2.32-.01,4.64,0,7.07,0Z" fill="#7ac15b" stroke-width="0"/>
  <path d="M235.31,137.76c-.11.89-.04,1.74-.05,2.59-.01.86,0,1.71,0,2.57s0,1.65,0,2.47c0,.85.03,1.7-.03,2.53-.73.18-1.99.19-2.76.04-.16-.31-.09-.65-.09-.98,0-2.72,0-5.44,0-8.16,0-.33-.02-.66-.03-1.03-.26-.04-.46-.08-.67-.09-.76,0-1.53,0-2.29,0-.21,0-.41-.03-.66-.05-.09-.86-.08-1.67,0-2.51.14-.03.25-.09.36-.09,3.15,0,6.3,0,9.44,0,.12,0,.24.03.34.05.2.59.23,1.44.08,2.49-.15.03-.32.1-.49.11-.79.01-1.59,0-2.38,0-.24,0-.47.04-.75.06Z" fill="#7ac15b" stroke-width="0"/>
  <path d="M342.87,145.45c1.57,0,3.03.02,4.53.03.13.86.09,1.66.03,2.52-1.26.12-2.48.04-3.69.05-1.22.01-2.44,0-3.62,0-.29-.35-.18-.7-.18-1.02,0-3.66,0-7.33,0-10.99,0-.3.02-.6.03-.88.71-.17,1.94-.18,2.78-.03.15.27.08.58.08.88,0,2.78,0,5.56,0,8.33,0,.33.01.66.03,1.11Z" fill="#7ac15b" stroke-width="0"/>
  <path d="M165.76,135.06c.96-.05,1.81-.05,2.65,0,.25.29.16.61.16.9,0,2.78,0,5.57,0,8.35v1.04c.22.04.39.1.56.1,1.04,0,2.08,0,3.12,0,.3,0,.6.02.95.03.13.85.11,1.65.03,2.43-.1.05-.16.1-.21.1-2.23.01-4.47.02-6.7.03-.15,0-.3-.03-.46-.04-.19-.33-.12-.68-.12-1,0-3.64,0-7.28,0-10.92,0-.3,0-.61.01-1.02Z" fill="#7ac15b" stroke-width="0"/>
  <path d="M386.43,148.04c-.91.01-1.79.05-2.71-.03-.03-.16-.08-.31-.08-.45,0-4,0-8,0-11.99,0-.15.04-.29.06-.48.93-.09,1.83-.09,2.77,0,.02.19.05.33.06.48.09,2.87.03,11.53-.09,12.47Z" fill="#7ac15b" stroke-width="0"/>
  <path d="M241.75,147.93c-.02-.16-.04-.34-.05-.51-.09-4.14-.04-11.41.09-12.31.89-.16,1.78-.03,2.73-.08.03.26.07.43.07.6,0,3.91,0,7.81,0,11.72,0,.21-.03.41-.05.6-.85.16-2.08.15-2.79-.02Z" fill="#7ac15b" stroke-width="0"/>
  <path d="M212.21,148.01c-.9.07-1.74.07-2.58,0-.25-.29-.16-.61-.16-.9,0-2.6,0-5.19,0-7.79,0-1.13,0-2.26,0-3.39,0-.27.03-.53.05-.84.93-.09,1.8-.09,2.7,0,.03.18.07.33.07.47.08,2.19.03,11.62-.08,12.45Z" fill="#7ac15b" stroke-width="0"/>
  <path d="M300.39,134.65c-.55,0-1.06,0-1.57,0-.11,0-.21-.02-.4-.05.65-1.1,1.35-2.1,2.03-3.12.72-.11,1.43-.04,2.16-.05,0,.1.02.21-.02.26-.73.99-1.46,1.97-2.2,2.96Z" fill="#7ac15b" stroke-width="0"/>
  <path d="M42,143.24c-.65-.26-.94-.44-1.93-.88-.6-.27-1.21-.52-1.79-.82-1.15-.58-2.29-1.18-3.41-1.8-.98-.53-1.94-1.09-2.9-1.66-.86-.52-1.69-1.07-2.52-1.62-.9-.6-1.79-1.23-2.69-1.85-.59-.41-1.12-.87-1.6-1.42-.45-.51-.58-1.04-.27-1.64.28-.53.56-1.06.91-1.55.69-.98,1.41-1.95,2.14-2.9,1.08-1.4,2.17-2.81,3.29-4.18.89-1.08,1.82-2.13,2.75-3.17.6-.68,1.35-1.17,2.21-1.43.85-.26,1.73-.33,2.63-.27,1.31.09,2.5.58,3.71,1.03,1.26.47,2.55.86,3.85,1.19,1.58.4,3.17.74,4.78,1.01,1.33.22,2.66.4,4,.52,1.63.14,3.26.17,4.89.12,2.07-.07,4.11-.31,6.13-.73,3.04-.64,5.96-1.61,8.8-2.86,2.02-.89,3.99-1.89,5.85-3.07,1.11-.7,2.17-1.5,3.19-2.33,2.27-1.85,4.39-3.85,6.42-5.96,2.35-2.44,4.41-5.11,6.25-7.96,2.33-3.61,4.48-7.33,6.48-11.12,1.35-2.56,2.68-5.12,3.98-7.71.89-1.76,1.71-3.56,2.56-5.34.57-1.19,1.15-2.36,1.72-3.55.6-1.27,1.19-2.54,1.77-3.81s1.17-2.55,1.75-3.82c.65-1.43,1.28-2.88,1.92-4.31.58-1.31,1.16-2.61,1.75-3.92.28-.63.57-1.25.86-1.87.55-1.22,1.09-2.46,1.67-3.67.23-.49.53-.95.82-1.41.11-.18.27-.29.58-.25.17.23.38.5.56.79,1.05,1.77,2.09,3.55,3.15,5.32.68,1.13,1.39,2.24,2.09,3.35.17.26.34.53.72.64.07-.1.16-.24.27-.4.23-.33.21-.27.39-.52.21-.29.27-.42.37-.41.08,0,.14.11.16.16,1.74,3.45,2.11,5.78,2.11,5.78.45,2.81.53,1.86,1.06,5.04.49,2.89.64,5.8.81,8.72.15,2.52.1,5.04.06,7.56-.02,1.29-.18,2.57-.24,3.86-.1,2.32-.52,4.61-.91,6.89-.23,1.35-.58,2.68-.94,4.01-.36,1.33-.77,2.64-1.19,3.94-.26.82-.58,1.62-.9,2.41-.41,1.03-.85,2.06-1.29,3.08-.26.6-.55,1.19-.84,1.78-.43.87-.85,1.75-1.31,2.6-.53.98-1.07,1.96-1.65,2.91-.86,1.41-1.74,2.82-2.67,4.19-.79,1.15-1.65,2.26-2.51,3.36-.83,1.06-1.67,2.1-2.56,3.11-.75.86-1.55,1.67-2.36,2.48-.84.85-1.7,1.68-2.58,2.49-.65.6-1.34,1.16-2.02,1.72-.79.65-1.59,1.3-2.41,1.91-.83.61-1.69,1.16-2.54,1.74-.57.38-1.13.78-1.7,1.15-.41.26-.83.51-1.25.74-1.05.58-2.11,1.15-3.17,1.7-.73.39-1.47.76-2.22,1.12-.54.26-1.09.5-1.65.73-.84.35-1.69.69-2.55,1.01-.77.29-1.56.56-2.34.84-2.45.89-4.97,1.54-7.5,2.15-1.65.39-3.31.69-4.97.97-1.24.21-2.5.3-3.76.38-2.06.14-4.12.27-6.18.33-1.72.05-3.44.02-5.15-.06-1.94-.09-3.89-.26-5.83-.42-.71-.06-1.41-.22-2.12-.34-1.75-.31-3.48-.71-5.18-1.19-1.18-.33-2.38-.63-3.53-1.08-.85-.33-.68-.24-2.67-.93-.86-.3-1.13-.39-1.61-.58Z" fill="#010101" stroke-width="0"/>
</svg>